<svg width="44" height="40" viewBox="0 0 44 40" fill="none" xmlns="http://www.w3.org/2000/svg">
<path d="M3.22598 15.5655C4.08481 15.5655 5.08156 16.0464 6.02286 16.9473C6.95542 17.8401 7.78447 19.101 8.30704 20.545C8.90575 22.2009 9.01019 23.785 8.72891 24.9962C8.44678 26.2109 7.80411 26.976 6.9545 27.2003H6.95352C6.8298 27.2332 6.70255 27.2542 6.57169 27.2637H6.40665C5.54778 27.2637 4.55108 26.783 3.60977 25.8819C2.67714 24.9891 1.84815 23.7284 1.32559 22.2843V22.2833C0.773681 20.7625 0.630989 19.2595 0.875397 18.0255L0.929108 17.7823C1.23167 16.5501 1.8831 15.8457 2.68399 15.6358L2.68594 15.6348C2.85891 15.5887 3.0387 15.5655 3.22598 15.5655Z" fill="#929292" stroke="#929292"/>
<mask id="path-2-inside-1_7640_271" fill="white">
<path d="M3.21929 15.2842C5.18446 15.2842 7.46028 17.5014 8.52053 20.4385C9.12157 22.0971 9.26338 23.7614 8.93248 25.1205C8.62183 26.3875 7.93301 27.2226 7.00107 27.4644C6.81198 27.5163 6.60938 27.5393 6.40679 27.5393C4.44161 27.5393 2.16579 25.3221 1.10554 22.385C-0.0762639 19.1024 0.619314 15.8832 2.63176 15.3533C2.82085 15.3015 3.02345 15.2785 3.22604 15.2785M3.21929 14.8408C2.96267 14.8408 2.71955 14.8696 2.47644 14.9329C0.153344 15.5434 -0.68405 18.9354 0.605807 22.5175C1.7606 25.7195 4.23226 27.9885 6.40679 27.9885C6.66341 27.9885 6.90652 27.9597 7.14964 27.8964C9.47273 27.2859 10.3101 23.8939 9.02027 20.3118C7.86547 17.1098 5.39381 14.8408 3.21929 14.8408Z"/>
</mask>
<path d="M3.21929 15.2842C5.18446 15.2842 7.46028 17.5014 8.52053 20.4385C9.12157 22.0971 9.26338 23.7614 8.93248 25.1205C8.62183 26.3875 7.93301 27.2226 7.00107 27.4644C6.81198 27.5163 6.60938 27.5393 6.40679 27.5393C4.44161 27.5393 2.16579 25.3221 1.10554 22.385C-0.0762639 19.1024 0.619314 15.8832 2.63176 15.3533C2.82085 15.3015 3.02345 15.2785 3.22604 15.2785M3.21929 14.8408C2.96267 14.8408 2.71955 14.8696 2.47644 14.9329C0.153344 15.5434 -0.68405 18.9354 0.605807 22.5175C1.7606 25.7195 4.23226 27.9885 6.40679 27.9885C6.66341 27.9885 6.90652 27.9597 7.14964 27.8964C9.47273 27.2859 10.3101 23.8939 9.02027 20.3118C7.86547 17.1098 5.39381 14.8408 3.21929 14.8408Z" fill="#929292"/>
<path d="M8.52053 20.4385L7.57994 20.778L7.58036 20.7792L8.52053 20.4385ZM8.93248 25.1205L9.90371 25.3587L9.90409 25.3571L8.93248 25.1205ZM7.00107 27.4644L6.74983 26.4964L6.73671 26.5L7.00107 27.4644ZM1.10554 22.385L0.164661 22.7238L0.164952 22.7246L1.10554 22.385ZM2.63176 15.3533L2.88637 16.3204L2.89612 16.3178L2.63176 15.3533ZM2.47644 14.9329L2.22429 13.9652L2.22229 13.9658L2.47644 14.9329ZM0.605807 22.5175L-0.335054 22.8563L-0.334885 22.8567L0.605807 22.5175ZM7.14964 27.8964L7.40179 28.864L7.40378 28.8635L7.14964 27.8964ZM9.02027 20.3118L9.96113 19.973L9.96096 19.9725L9.02027 20.3118ZM3.21929 15.2842V16.2842C3.83913 16.2842 4.66242 16.6503 5.51194 17.4767C6.34245 18.2847 7.09735 19.4412 7.57994 20.778L8.52053 20.4385L9.46112 20.099C8.88346 18.4987 7.97033 17.0781 6.90657 16.0432C5.86183 15.0268 4.56462 14.2842 3.21929 14.2842V15.2842ZM8.52053 20.4385L7.58036 20.7792C8.13062 22.2977 8.23502 23.7579 7.96086 24.884L8.93248 25.1205L9.90409 25.3571C10.2917 23.7649 10.1125 21.8965 9.46071 20.0978L8.52053 20.4385ZM8.93248 25.1205L7.96124 24.8824C7.70272 25.9368 7.20184 26.3792 6.74985 26.4965L7.00107 27.4644L7.25229 28.4324C8.66417 28.0659 9.54094 26.8382 9.90371 25.3587L8.93248 25.1205ZM7.00107 27.4644L6.73671 26.5C6.64807 26.5243 6.53623 26.5393 6.40679 26.5393V27.5393V28.5393C6.68253 28.5393 6.97589 28.5082 7.26542 28.4289L7.00107 27.4644ZM6.40679 27.5393V26.5393C5.78694 26.5393 4.96366 26.1733 4.11413 25.3468C3.28362 24.5388 2.52872 23.3823 2.04613 22.0455L1.10554 22.385L0.164952 22.7246C0.742611 24.3248 1.65575 25.7454 2.7195 26.7803C3.76424 27.7967 5.06146 28.5393 6.40679 28.5393V27.5393ZM1.10554 22.385L2.04642 22.0463C1.50741 20.5491 1.41682 19.1159 1.64811 18.0487C1.88443 16.9584 2.3907 16.4509 2.88636 16.3204L2.63176 15.3533L2.37716 14.3863C0.860371 14.7856 0.012627 16.1527 -0.306502 17.6251C-0.630658 19.1207 -0.478131 20.9383 0.164661 22.7238L1.10554 22.385ZM2.63176 15.3533L2.89612 16.3178C2.98476 16.2935 3.09659 16.2785 3.22604 16.2785V15.2785V14.2785C2.9503 14.2785 2.65694 14.3095 2.3674 14.3889L2.63176 15.3533ZM3.21929 14.8408V13.8408C2.885 13.8408 2.55661 13.8787 2.22429 13.9652L2.47644 14.9329L2.72859 15.9006C2.88249 15.8605 3.04034 15.8408 3.21929 15.8408V14.8408ZM2.47644 14.9329L2.22229 13.9658C0.593899 14.3937 -0.39042 15.7735 -0.784624 17.3713C-1.1793 18.9711 -1.03296 20.9181 -0.335054 22.8563L0.605807 22.5175L1.54667 22.1787C0.95472 20.5348 0.874825 18.9948 1.15716 17.8504C1.43996 16.7041 2.03588 16.0826 2.73058 15.9001L2.47644 14.9329ZM0.605807 22.5175L-0.334885 22.8567C0.291905 24.5947 1.28216 26.1 2.44069 27.184C3.58559 28.2551 4.97952 28.9885 6.40679 28.9885V27.9885V26.9885C5.65953 26.9885 4.73037 26.5873 3.80711 25.7235C2.89748 24.8724 2.0745 23.6423 1.5465 22.1782L0.605807 22.5175ZM6.40679 27.9885V28.9885C6.74108 28.9885 7.06946 28.9506 7.40179 28.864L7.14964 27.8964L6.89749 26.9287C6.74358 26.9688 6.58574 26.9885 6.40679 26.9885V27.9885ZM7.14964 27.8964L7.40378 28.8635C9.03218 28.4356 10.0165 27.0558 10.4107 25.458C10.8054 23.8582 10.659 21.9112 9.96113 19.973L9.02027 20.3118L8.07941 20.6506C8.67136 22.2945 8.75125 23.8345 8.46892 24.9789C8.18612 26.1252 7.59019 26.7466 6.89549 26.9292L7.14964 27.8964ZM9.02027 20.3118L9.96096 19.9725C9.33417 18.2346 8.34392 16.7293 7.18539 15.6453C6.04049 14.5741 4.64655 13.8408 3.21929 13.8408V14.8408V15.8408C3.96655 15.8408 4.8957 16.242 5.81897 17.1058C6.7286 17.9568 7.55157 19.187 8.07958 20.6511L9.02027 20.3118Z" fill="#929292" mask="url(#path-2-inside-1_7640_271)"/>
<path d="M12.0252 3.62715C12.884 3.62715 13.8808 4.108 14.8221 5.00899C15.7547 5.90172 16.5837 7.16263 17.1063 8.60664C17.705 10.2626 17.8094 11.8466 17.5281 13.0578C17.246 14.2725 16.6033 15.0376 15.7537 15.2619H15.7527C15.629 15.2949 15.5018 15.3159 15.3709 15.3254H15.2059C14.347 15.3253 13.3503 14.8446 12.409 13.9436C11.4764 13.0508 10.6474 11.79 10.1248 10.3459V10.3449C9.5729 8.82416 9.43021 7.32115 9.67462 6.08711L9.72833 5.84395C10.0309 4.61179 10.6823 3.90738 11.4832 3.69746L11.4852 3.69649C11.6581 3.65039 11.8379 3.62716 12.0252 3.62715Z" fill="#929292" stroke="#929292"/>
<mask id="path-5-inside-2_7640_271" fill="white">
<path d="M12.0186 3.346C13.9837 3.346 16.2596 5.5632 17.3198 8.50027C18.5016 11.7829 17.806 15.0021 15.7936 15.532C15.6045 15.5838 15.4019 15.6068 15.1993 15.6068C13.2341 15.6068 10.9583 13.3896 9.89806 10.4526C8.71625 7.16995 9.41183 3.95069 11.4243 3.42086C11.6134 3.36903 11.816 3.346 12.0186 3.346ZM12.0186 2.90256C11.7619 2.90256 11.5188 2.93135 11.2757 2.9947C8.95261 3.60515 8.11522 6.99718 9.40508 10.5793C10.5599 13.7812 13.0315 16.0503 15.2061 16.0503C15.4627 16.0503 15.7058 16.0215 15.9489 15.9581C18.272 15.3477 19.1094 11.9556 17.8195 8.37357C16.6647 5.17159 14.1931 2.90256 12.0186 2.90256Z"/>
</mask>
<path d="M12.0186 3.346C13.9837 3.346 16.2596 5.5632 17.3198 8.50027C18.5016 11.7829 17.806 15.0021 15.7936 15.532C15.6045 15.5838 15.4019 15.6068 15.1993 15.6068C13.2341 15.6068 10.9583 13.3896 9.89806 10.4526C8.71625 7.16995 9.41183 3.95069 11.4243 3.42086C11.6134 3.36903 11.816 3.346 12.0186 3.346ZM12.0186 2.90256C11.7619 2.90256 11.5188 2.93135 11.2757 2.9947C8.95261 3.60515 8.11522 6.99718 9.40508 10.5793C10.5599 13.7812 13.0315 16.0503 15.2061 16.0503C15.4627 16.0503 15.7058 16.0215 15.9489 15.9581C18.272 15.3477 19.1094 11.9556 17.8195 8.37357C16.6647 5.17159 14.1931 2.90256 12.0186 2.90256Z" fill="#929292"/>
<path d="M17.3198 8.50027L18.2607 8.16153L18.2604 8.16073L17.3198 8.50027ZM15.7936 15.532L15.539 14.5649L15.5292 14.5675L15.7936 15.532ZM9.89806 10.4526L8.95718 10.7913L8.95747 10.7921L9.89806 10.4526ZM11.4243 3.42086L11.6789 4.38796L11.6886 4.38529L11.4243 3.42086ZM11.2757 2.9947L11.0236 2.02701L11.0216 2.02753L11.2757 2.9947ZM9.40508 10.5793L8.46422 10.918L8.46439 10.9185L9.40508 10.5793ZM15.9489 15.9581L16.2011 16.9258L16.2031 16.9253L15.9489 15.9581ZM17.8195 8.37357L18.7604 8.03478L18.7602 8.03431L17.8195 8.37357ZM12.0186 3.346V4.346C12.6384 4.346 13.4617 4.71202 14.3112 5.5385C15.1417 6.34647 15.8966 7.50295 16.3792 8.83981L17.3198 8.50027L18.2604 8.16073C17.6827 6.56051 16.7696 5.13986 15.7058 4.10497C14.6611 3.08857 13.3639 2.346 12.0186 2.346V3.346ZM17.3198 8.50027L16.3789 8.83901C16.9179 10.3362 17.0085 11.7694 16.7772 12.8366C16.5409 13.9269 16.0346 14.4344 15.539 14.5649L15.7936 15.532L16.0482 16.499C17.565 16.0997 18.4127 14.7326 18.7318 13.2602C19.056 11.7646 18.9035 9.94696 18.2607 8.16153L17.3198 8.50027ZM15.7936 15.532L15.5292 14.5675C15.4406 14.5918 15.3288 14.6068 15.1993 14.6068V15.6068V16.6068C15.475 16.6068 15.7684 16.5757 16.0579 16.4964L15.7936 15.532ZM15.1993 15.6068V14.6068C14.5795 14.6068 13.7562 14.2408 12.9067 13.4143C12.0761 12.6064 11.3212 11.4499 10.8387 10.113L9.89806 10.4526L8.95747 10.7921C9.53513 12.3923 10.4483 13.813 11.512 14.8479C12.5568 15.8643 13.854 16.6068 15.1993 16.6068V15.6068ZM9.89806 10.4526L10.8389 10.1138C10.2999 8.61664 10.2093 7.18338 10.4406 6.11624C10.677 5.0259 11.1832 4.5184 11.6789 4.38791L11.4243 3.42086L11.1697 2.45382C9.65289 2.85315 8.80514 4.22019 8.48602 5.69259C8.16186 7.18819 8.31439 9.00586 8.95718 10.7913L9.89806 10.4526ZM11.4243 3.42086L11.6886 4.38529C11.7773 4.36099 11.8891 4.346 12.0186 4.346V3.346V2.346C11.7428 2.346 11.4495 2.37708 11.1599 2.45644L11.4243 3.42086ZM12.0186 2.90256V1.90256C11.6843 1.90256 11.3559 1.94042 11.0236 2.02701L11.2757 2.9947L11.5279 3.96239C11.6818 3.92229 11.8396 3.90256 12.0186 3.90256V2.90256ZM11.2757 2.9947L11.0216 2.02753C9.39317 2.45544 8.40885 3.83524 8.01465 5.43309C7.61997 7.03285 7.76631 8.97988 8.46422 10.918L9.40508 10.5793L10.3459 10.2405C9.75399 8.59656 9.6741 7.05653 9.95643 5.91215C10.2392 4.76585 10.8352 4.14442 11.5299 3.96187L11.2757 2.9947ZM9.40508 10.5793L8.46439 10.9185C9.09118 12.6565 10.0814 14.1618 11.24 15.2457C12.3849 16.3169 13.7788 17.0503 15.2061 17.0503V16.0503V15.0503C14.4588 15.0503 13.5296 14.6491 12.6064 13.7853C11.6967 12.9342 10.8738 11.704 10.3458 10.24L9.40508 10.5793ZM15.2061 16.0503V17.0503C15.5404 17.0503 15.8687 17.0124 16.2011 16.9258L15.9489 15.9581L15.6968 14.9904C15.5428 15.0305 15.385 15.0503 15.2061 15.0503V16.0503ZM15.9489 15.9581L16.2031 16.9253C17.8314 16.4974 18.8158 15.1176 19.21 13.5197C19.6046 11.92 19.4583 9.97295 18.7604 8.03478L17.8195 8.37357L16.8787 8.71236C17.4706 10.3563 17.5505 11.8963 17.2682 13.0407C16.9854 14.187 16.3895 14.8084 15.6948 14.991L15.9489 15.9581ZM17.8195 8.37357L18.7602 8.03431C18.1334 6.29636 17.1432 4.79104 15.9847 3.7071C14.8398 2.63591 13.4458 1.90256 12.0186 1.90256V2.90256V3.90256C12.7658 3.90256 13.695 4.30372 14.6182 5.16754C15.5279 6.01861 16.3508 7.2488 16.8788 8.71283L17.8195 8.37357Z" fill="#929292" mask="url(#path-5-inside-2_7640_271)"/>
<path d="M26.261 12.923C24.1878 12.923 21.8039 10.6367 20.7099 7.61323C19.4605 4.15785 20.2237 0.881 22.4049 0.305104C22.621 0.247514 22.8439 0.218719 23.0735 0.218719C25.1467 0.218719 27.5306 2.50503 28.6246 5.52848C29.874 8.98386 29.1108 12.2607 26.9296 12.8366C26.7135 12.8942 26.4906 12.923 26.261 12.923Z" fill="#929292"/>
<path d="M23.0737 0.44344C25.0388 0.44344 27.3147 2.66064 28.3749 5.59771C29.5567 8.88032 28.8611 12.0996 26.8487 12.6294C26.6596 12.6812 26.457 12.7043 26.2544 12.7043C24.2892 12.7043 22.0134 10.4871 20.9532 7.55C20.3521 5.89142 20.2103 4.22708 20.5412 2.86796C20.8519 1.60099 21.5407 0.765942 22.4726 0.524065C22.6617 0.472235 22.8643 0.449199 23.0669 0.449199M23.0737 0C22.8171 0 22.5739 0.0287948 22.3308 0.0921434C20.0077 0.702593 19.1703 4.09462 20.4602 7.67669C21.615 10.8787 24.0866 13.1477 26.2612 13.1477C26.5178 13.1477 26.7609 13.1189 27.004 13.0556C29.3271 12.4451 30.1645 9.05309 28.8747 5.47101C27.7199 2.26327 25.2482 0 23.0737 0Z" fill="#929292"/>
<path d="M40.7805 19.6207C38.7073 19.6207 36.3234 17.3343 35.2294 14.3109C33.9801 10.8555 34.7432 7.57866 36.9245 7.00277C37.1406 6.94518 37.3634 6.91638 37.593 6.91638C39.6663 6.91638 42.0501 9.20269 43.1442 12.2261C44.3935 15.6815 43.6304 18.9584 41.4491 19.5343C41.233 19.5919 41.0102 19.6207 40.7805 19.6207Z" fill="#929292"/>
<path d="M37.5932 7.14107C39.5584 7.14107 41.8342 9.35827 42.8945 12.2953C43.4955 13.9539 43.6373 15.6183 43.3064 16.9774C42.9957 18.2443 42.3069 19.0794 41.375 19.3213C41.1859 19.3731 40.9833 19.3961 40.7807 19.3961C38.8155 19.3961 36.5397 17.1789 35.4795 14.2419C34.2977 10.9593 34.9932 7.74 37.0057 7.21018C37.1948 7.15835 37.3974 7.13531 37.6 7.13531M37.5932 6.69763C37.3366 6.69763 37.0935 6.72643 36.8504 6.78978C34.5273 7.40023 33.6899 10.7923 34.9797 14.3743C36.1345 17.5763 38.6062 19.8453 40.7807 19.8453C41.0373 19.8453 41.2804 19.8165 41.5236 19.7532C43.8466 19.1427 44.684 15.7507 43.3942 12.1686C42.2394 8.96666 39.7677 6.69763 37.5932 6.69763Z" fill="#929292"/>
<path d="M22.5942 17.6281C26.7744 18.9296 35.459 21.9934 38.5857 24.5734C40.4901 26.1456 42.3067 29.9638 40.5442 32.5553C38.66 35.3196 34.9323 37.5022 28.8274 34.8992C25.4981 39.9786 20.9802 39.9613 17.5969 38.5792C14.4296 37.2834 13.4166 33.2579 13.9569 31.0407C14.8348 27.4068 20.001 20.7149 22.601 17.6281H22.5942Z" fill="#929292"/>
</svg>
